<svg viewBox="0 0 128 26" fill="none" xmlns="http://www.w3.org/2000/svg">
<path d="M30.3884 15.3941H36.728L33.5783 7.14853H33.5381L30.3884 15.3941ZM40.0584 20.1689H38.5738L37.2496 16.7383H29.8467L28.5226 20.1689H27.058L32.8761 5.12225H34.2403L40.0584 20.1689ZM40.675 20.5903C40.675 19.8948 40.8689 19.2996 41.2568 18.8047C40.8689 18.4168 40.675 17.9487 40.675 17.4004C40.675 15.9692 41.5845 15.1935 43.4034 15.0731V15.033C42.3334 14.284 41.7985 13.3143 41.7985 12.124C41.7985 11.0406 42.193 10.1177 42.9821 9.35538C43.7712 8.57964 44.7075 8.19177 45.7908 8.19177C46.8073 8.19177 47.6834 8.51946 48.419 9.17482C48.8336 8.51946 49.4489 8.19177 50.2647 8.19177H50.7863V9.53594H50.2647C50.024 9.53594 49.8167 9.62288 49.6428 9.79675C49.4823 9.97063 49.402 10.1779 49.402 10.4187C49.402 10.5123 49.4288 10.6059 49.4823 10.6996C49.6829 11.3282 49.7832 11.803 49.7832 12.124C49.7832 13.2073 49.3887 14.1369 48.5996 14.9126C47.8104 15.675 46.8742 16.0562 45.7908 16.0562C44.2661 16.0562 43.2897 16.1364 42.8618 16.2969C42.3401 16.4842 42.0793 16.8386 42.0793 17.3602C42.0793 17.5876 42.1596 17.7815 42.3201 17.942C43.1761 17.4739 44.333 17.2399 45.7908 17.2399C47.3557 17.2399 48.5996 17.5207 49.5224 18.0825C50.4587 18.6442 50.9268 19.4801 50.9268 20.5903C50.9268 21.7004 50.4587 22.5363 49.5224 23.098C48.5996 23.6598 47.3557 23.9407 45.7908 23.9407C44.2394 23.9407 42.9955 23.6531 42.0593 23.078C41.1364 22.5162 40.675 21.687 40.675 20.5903ZM45.7908 18.564C43.3165 18.564 42.0793 19.2394 42.0793 20.5903C42.0793 21.9411 43.3165 22.6165 45.7908 22.6165C48.2786 22.6165 49.5224 21.9411 49.5224 20.5903C49.5224 19.2394 48.2786 18.564 45.7908 18.564ZM47.6165 13.9697C48.1248 13.4481 48.3789 12.8328 48.3789 12.124C48.3789 11.4151 48.1248 10.8066 47.6165 10.2983C47.1083 9.77669 46.4997 9.51588 45.7908 9.51588C45.082 9.51588 44.4734 9.77669 43.9652 10.2983C43.4569 10.8066 43.2028 11.4151 43.2028 12.124C43.2028 12.8328 43.4569 13.4481 43.9652 13.9697C44.4868 14.4779 45.0953 14.7321 45.7908 14.7321C46.4997 14.7321 47.1083 14.4779 47.6165 13.9697ZM63.995 14.3509C63.995 14.3643 63.9749 14.5916 63.9348 15.033H53.1614C53.3352 16.21 53.8636 17.1997 54.7463 18.0022C55.629 18.7913 56.6656 19.1859 57.8559 19.1859C58.6986 19.1859 59.4743 18.9719 60.1832 18.5439C60.892 18.1159 61.4605 17.5542 61.8885 16.8587H63.4333C62.9518 17.9554 62.2095 18.8381 61.2063 19.5069C60.2032 20.1756 59.0864 20.51 57.8559 20.51C56.1707 20.51 54.7262 19.9081 53.5225 18.7044C52.3321 17.5007 51.737 16.0495 51.737 14.3509C51.737 12.6523 52.3321 11.2078 53.5225 10.0174C54.7262 8.8137 56.1707 8.21183 57.8559 8.21183C59.5545 8.21183 60.999 8.8137 62.1894 10.0174C63.3931 11.2078 63.995 12.6523 63.995 14.3509ZM53.1614 13.6688H62.5706C62.3967 12.4918 61.8617 11.5087 60.9656 10.7196C60.0829 9.9305 59.0463 9.53594 57.8559 9.53594C56.6656 9.53594 55.629 9.9305 54.7463 10.7196C53.8636 11.5087 53.3352 12.4918 53.1614 13.6688ZM65.6081 20.1689V8.55289H66.9724V10.519H67.0125C67.2934 9.9305 67.8083 9.4022 68.5573 8.93408C69.3196 8.45258 70.1355 8.21183 71.0049 8.21183C72.4226 8.21183 73.526 8.63983 74.3152 9.49582C75.1176 10.3384 75.5189 11.4552 75.5189 12.8462V20.1689H74.1547V12.8462C74.1547 11.8565 73.8537 11.0607 73.2519 10.4588C72.65 9.84357 71.8609 9.53594 70.8845 9.53594C69.9081 9.53594 69.0187 9.88369 68.2162 10.5792C67.4137 11.2613 66.9991 12.0705 66.9724 13.0067V20.1689H65.6081ZM88.1031 20.1689V17.8217H88.063C87.5414 18.5974 86.8659 19.2394 86.0367 19.7476C85.2208 20.2559 84.2712 20.51 83.1878 20.51C81.5026 20.51 80.0715 19.9148 78.8945 18.7245C77.7175 17.5207 77.129 16.0629 77.129 14.3509C77.129 12.6523 77.7175 11.2078 78.8945 10.0174C80.0715 8.8137 81.5026 8.21183 83.1878 8.21183C84.2846 8.21183 85.2409 8.46596 86.0567 8.9742C86.8726 9.46907 87.5414 10.1111 88.063 10.9002H88.1031V5.12225H89.4673V20.1689H88.1031ZM88.1031 14.3509C88.1031 13.0268 87.6283 11.8966 86.6787 10.9604C85.7424 10.0108 84.619 9.53594 83.3082 9.53594C81.9841 9.53594 80.8539 10.0108 79.9177 10.9604C78.9948 11.8966 78.5334 13.0268 78.5334 14.3509C78.5334 15.6884 78.9948 16.8319 79.9177 17.7815C80.8539 18.7178 81.9841 19.1859 83.3082 19.1859C84.619 19.1859 85.7424 18.7178 86.6787 17.7815C87.6283 16.8319 88.1031 15.6884 88.1031 14.3509ZM101.381 12.1641V20.1689H100.017V18.2028H99.9768C98.9737 19.741 97.5225 20.51 95.6233 20.51C93.8445 20.51 92.527 19.9282 91.671 18.7646C90.9889 17.8283 90.7883 16.8119 91.0692 15.7151C91.3501 14.6184 92.0589 13.8426 93.1958 13.3879C93.7843 13.1472 94.453 13.0268 95.202 13.0268H100.017V12.1641C100.017 11.3482 99.7227 10.7062 99.1342 10.2381C98.5591 9.77 97.6897 9.53594 96.5261 9.53594C95.3893 9.53594 94.5333 9.75663 93.9581 10.198C93.383 10.626 93.0955 11.1944 93.0955 11.9033H91.671C91.671 10.8199 92.1057 9.93719 92.9751 9.25507C93.8578 8.55958 95.0415 8.21183 96.5261 8.21183C98.0508 8.21183 99.2412 8.57964 100.097 9.31526C100.953 10.0375 101.381 10.9871 101.381 12.1641ZM100.017 14.391H95.202C93.918 14.391 93.0553 14.8056 92.614 15.6349C92.2395 16.3437 92.2729 17.0593 92.7143 17.7815C93.2493 18.6509 94.132 19.119 95.3625 19.1859C95.4428 19.1859 95.5297 19.1859 95.6233 19.1859C96.8271 19.1859 97.8569 18.8181 98.7129 18.0825C99.5823 17.3335 100.017 16.3705 100.017 15.1935V14.391Z" fill="#371674"/>
<path d="M107.312 20.4178C106.141 20.4178 105.141 20.0031 104.311 19.1737C103.482 18.3443 103.067 17.3441 103.067 16.1732V9.19168H104.062V16.1732C104.062 17.0709 104.379 17.8418 105.014 18.4858C105.648 19.1298 106.414 19.4518 107.312 19.4518C108.2 19.4518 108.961 19.1298 109.595 18.4858C110.229 17.8418 110.546 17.0709 110.546 16.1732V9.19168H111.541V16.1732C111.541 17.3441 111.127 18.3443 110.297 19.1737C109.468 20.0031 108.473 20.4178 107.312 20.4178ZM113.008 20.1689V11.6945H114.004V13.1289H114.033C114.238 12.6995 114.613 12.3141 115.16 11.9726C115.716 11.6213 116.311 11.4457 116.945 11.4457C117.98 11.4457 118.785 11.7579 119.36 12.3824C119.946 12.9971 120.239 13.8119 120.239 14.8267V20.1689H119.243V14.8267C119.243 14.1046 119.024 13.524 118.585 13.0849C118.146 12.6361 117.57 12.4117 116.858 12.4117C116.145 12.4117 115.496 12.6654 114.911 13.1728C114.326 13.6704 114.023 14.2607 114.004 14.9438V20.1689H113.008ZM121.706 11.6945H122.701V20.1689H121.706V11.6945ZM121.735 10.0699C121.609 9.93325 121.545 9.77713 121.545 9.60149C121.545 9.42586 121.609 9.27462 121.735 9.14777C121.872 9.01116 122.028 8.94286 122.204 8.94286C122.379 8.94286 122.531 9.01116 122.657 9.14777C122.794 9.27462 122.862 9.42586 122.862 9.60149C122.862 9.77713 122.794 9.93325 122.657 10.0699C122.531 10.1967 122.379 10.2601 122.204 10.2601C122.028 10.2601 121.872 10.1967 121.735 10.0699ZM125.577 12.6898V18.1784C125.577 18.5102 125.67 18.759 125.855 18.9249C126.041 19.0907 126.28 19.1737 126.572 19.1737H127.333V20.1689H126.572C126.006 20.1689 125.533 19.9884 125.153 19.6274C124.772 19.2664 124.582 18.7834 124.582 18.1784V12.6898H123.587V11.6945H124.582V9.77713H125.577V11.6945H127.333V12.6898H125.577Z" fill="#5220AF"/>
<rect x="1.16185" y="3.59154" width="18.5482" height="17.6648" rx="1.62659" stroke="url(#paint0_linear_1160_349)" stroke-width="2.32371"/>
<rect x="5.63208" y="0.110352" width="1.85896" height="6.04163" rx="0.929482" fill="#5220AF"/>
<rect x="13.4729" y="0.110352" width="1.85896" height="6.04163" rx="0.929482" fill="#5220AF"/>
<rect x="9.49731" width="1.85896" height="6.04163" rx="0.929482" fill="#5220AF"/>
<rect x="5.63208" y="7.95117" width="2.78845" height="2.32371" rx="0.464741" fill="#5220AF"/>
<rect x="13.4775" y="8.01172" width="2.78845" height="2.32371" rx="0.464741" fill="#5220AF"/>
<rect x="5.11206" y="13.123" width="11.1538" height="1.85896" fill="#5220AF"/>
<defs>
<linearGradient id="paint0_linear_1160_349" x1="2.59519" y1="2.42969" x2="32.1362" y2="31.5841" gradientUnits="userSpaceOnUse">
<stop stop-color="#5220AF"/>
<stop offset="1" stop-color="#220D49"/>
</linearGradient>
</defs>
</svg>
